<?xml version="1.0" encoding="utf-8"?>
<!-- Generator: Adobe Illustrator 21.0.0, SVG Export Plug-In . SVG Version: 6.00 Build 0)  -->
<svg version="1.1" id="图层_1" xmlns="http://www.w3.org/2000/svg" xmlns:xlink="http://www.w3.org/1999/xlink" x="0px" y="0px"
	 viewBox="0 0 40 32" style="enable-background:new 0 0 40 32;" xml:space="preserve">
<title>Shape</title>
<desc>Created with Sketch.</desc>
<g id="亲子电台">
	<g id="亲子电台首页" transform="translate(-450.000000, -1258.000000)">
		<g id="循环" transform="translate(450.000000, 1258.000000)">
			<path id="Shape" d="M36.4,6.9c-2.3-2.3-5.4-3.6-8.7-3.6h-13V0.9c0-0.8-0.5-1.1-1.2-0.7L7.5,4c-0.7,0.4-0.7,1.1,0,1.5l5.9,3.7
				c0.7,0.4,1.2,0.1,1.2-0.7V6.1h13c5.3,0,9.6,4.3,9.6,9.6c0,0.9-0.1,1.7-0.3,2.6c-0.2,0.7,0.2,1.5,1,1.7c0.1,0,0.2,0.1,0.4,0.1
				c0.6,0,1.2-0.4,1.3-1c0.3-1.1,0.4-2.2,0.4-3.3C40,12.4,38.7,9.3,36.4,6.9L36.4,6.9z M34.5,26.4l-6.1-3.7
				c-0.7-0.4-1.3-0.1-1.3,0.7v2.5H12.7c-5.4,0-9.8-4.3-9.8-9.6c0-1.8,0.5-3.6,1.6-5.2C4.9,10.5,4.7,9.6,4,9.2C3.3,8.8,2.5,9,2,9.6
				c-1.3,2-2,4.3-2,6.7c0,3.3,1.3,6.4,3.7,8.7c2.4,2.3,5.6,3.6,9,3.6h14.4v2.5c0,0.8,0.6,1.1,1.2,0.7l6.1-3.9
				C35.2,27.5,35.2,26.8,34.5,26.4L34.5,26.4z"/>
		</g>
	</g>
</g>
</svg>
