<?xml version="1.0" standalone="no"?><!DOCTYPE svg PUBLIC "-//W3C//DTD SVG 1.1//EN" "http://www.w3.org/Graphics/SVG/1.1/DTD/svg11.dtd"><svg t="1505658807370" class="icon" style="" viewBox="0 0 1024 1024" version="1.1" xmlns="http://www.w3.org/2000/svg" p-id="15139" xmlns:xlink="http://www.w3.org/1999/xlink" width="64" height="64"><defs><style type="text/css"></style></defs><path d="M954.96 31.096h-874.901c-20.629 0-37.283 16.654-37.283 37.283v857.502c0 20.629 16.654 37.283 37.283 37.283h874.901c20.629 0 37.283-16.654 37.283-37.283v-857.502c0-20.629-16.654-37.283-37.283-37.283zM736.733 219.995v108.119h-154.599v297.517c0 74.565-57.665 135.212-128.749 135.212s-128.749-57.665-128.749-128.749 57.665-128.749 128.749-128.749c29.328 0 55.675-2.486 77.299 14.665v-298.261l206.049 0.25z" p-id="15140" fill="#1296db"></path></svg>