<?xml version="1.0" encoding="utf-8"?>
<!-- Generator: Adobe Illustrator 21.0.0, SVG Export Plug-In . SVG Version: 6.00 Build 0)  -->
<svg version="1.1" id="图层_1" xmlns="http://www.w3.org/2000/svg" xmlns:xlink="http://www.w3.org/1999/xlink" x="0px" y="0px"
	 viewBox="0 0 60 60" style="enable-background:new 0 0 60 60;" xml:space="preserve">
<title>Combined Shape</title>
<desc>Created with Sketch.</desc>
<g id="亲子电台">
	<g id="Group-7" transform="translate(-590.000000, -1244.000000)">
		<g transform="translate(0.000000, 1214.000000)">
			<g id="Group-4" transform="translate(590.000000, 30.000000)">
				<path id="Combined-Shape" d="M30,60C13.4,60,0,46.6,0,30S13.4,0,30,0s30,13.4,30,30S46.6,60,30,60z M30,57c14.9,0,27-12.1,27-27
					S44.9,3,30,3S3,15.1,3,30S15.1,57,30,57z M22,18c1.1,0,2,0.9,2,2v20c0,1.1-0.9,2-2,2s-2-0.9-2-2V20C20,18.9,20.9,18,22,18z
					 M38,18c1.1,0,2,0.9,2,2v20c0,1.1-0.9,2-2,2s-2-0.9-2-2V20C36,18.9,36.9,18,38,18z"/>
			</g>
		</g>
	</g>
</g>
</svg>
