<?xml version="1.0" encoding="utf-8"?>
<!-- Generator: Adobe Illustrator 21.0.0, SVG Export Plug-In . SVG Version: 6.00 Build 0)  -->
<svg version="1.1" id="图层_1" xmlns="http://www.w3.org/2000/svg" xmlns:xlink="http://www.w3.org/1999/xlink" x="0px" y="0px"
	 viewBox="0 0 60 60" style="enable-background:new 0 0 60 60;" xml:space="preserve">
<title>Combined Shape</title>
<desc>Created with Sketch.</desc>
<g id="亲子电台">
	<g id="亲子电台首页" transform="translate(-590.000000, -1244.000000)">
		<g id="Group" transform="translate(0.000000, 1214.000000)">
			<path id="Combined-Shape" d="M620,90c-16.6,0-30-13.4-30-30s13.4-30,30-30s30,13.4,30,30S636.6,90,620,90z M620,87
				c14.9,0,27-12.1,27-27s-12.1-27-27-27s-27,12.1-27,27S605.1,87,620,87z M630.4,58.8c0.8,0.5,0.8,1.8,0,2.3
				c-0.9,0.6-14.7,10-15.7,10.7c-0.7,0.5-1.7-0.1-1.7-1.1c0-1.1,0-20.6,0-21.3c0-1,0.9-1.7,1.7-1.1C615.4,48.7,629.2,58,630.4,58.8z
				"/>
		</g>
	</g>
</g>
</svg>
