<?xml version="1.0" encoding="utf-8"?>
<!-- Generator: Adobe Illustrator 21.0.0, SVG Export Plug-In . SVG Version: 6.00 Build 0)  -->
<svg version="1.1" id="图层_1" xmlns="http://www.w3.org/2000/svg" xmlns:xlink="http://www.w3.org/1999/xlink" x="0px" y="0px"
	 viewBox="0 0 20 24" style="enable-background:new 0 0 20 24;" xml:space="preserve">
<title>Combined Shape Copy 2</title>
<desc>Created with Sketch.</desc>
<g id="亲子电台">
	<g id="亲子电台首页" transform="translate(-530.000000, -1262.000000)">
		<g id="Group" transform="translate(0.000000, 1214.000000)">
			<path id="Combined-Shape-Copy-2" d="M533,62.1c3.9,2.5,14.3,9.2,15.2,9.8c0.8,0.5,1.8-0.1,1.8-1.1c0-1.1,0-20.6,0-21.3
				c0-1-0.9-1.7-1.8-1.1c-0.6,0.4-11.2,7.2-15.2,9.7v-8.4l0,0c0-0.8-0.7-1.5-1.5-1.5s-1.5,0.7-1.5,1.5v21l0,0c0,0.8,0.7,1.5,1.5,1.5
				l0,0c0.8,0,1.5-0.7,1.5-1.5V62.1z"/>
		</g>
	</g>
</g>
</svg>
