<?xml version="1.0" encoding="utf-8"?>
<!-- Generator: Adobe Illustrator 21.0.0, SVG Export Plug-In . SVG Version: 6.00 Build 0)  -->
<svg version="1.1" id="图层_1" xmlns="http://www.w3.org/2000/svg" xmlns:xlink="http://www.w3.org/1999/xlink" x="0px" y="0px"
	 viewBox="0 0 40 32" style="enable-background:new 0 0 40 32;" xml:space="preserve">
<title>Combined Shape</title>
<desc>Created with Sketch.</desc>
<g id="亲子电台">
	<g id="Group-7" transform="translate(-450.000000, -1258.000000)">
		<g transform="translate(0.000000, 1214.000000)">
			<g id="循环" transform="translate(450.000000, 44.000000)">
				<path id="Combined-Shape" d="M36.4,6.9c-2.3-2.3-5.4-3.6-8.7-3.6h-13V0.9c0-0.8-0.5-1.1-1.2-0.7L7.5,4c-0.7,0.4-0.7,1.1,0,1.5
					l5.9,3.7c0.7,0.4,1.2,0.1,1.2-0.7V6.1h13c5.3,0,9.6,4.3,9.6,9.6c0,0.9-0.1,1.7-0.3,2.6c-0.2,0.7,0.2,1.5,1,1.7
					c0.1,0,0.2,0.1,0.4,0.1c0.6,0,1.2-0.4,1.3-1c0.3-1.1,0.4-2.2,0.4-3.3C40,12.4,38.7,9.3,36.4,6.9L36.4,6.9z M20,10
					c0.3,0,0.6,0.1,0.8,0.4C21,10.6,21,10.8,21,11c0,0,0,0,0,0v10c0,0.6-0.4,1-1,1s-1-0.4-1-1v-8.1L17.4,14c-0.4,0.3-1,0.1-1.3-0.3
					c-0.3-0.4-0.1-1,0.3-1.3l2.7-2C19.3,10.2,19.6,10,20,10C20,10,20,10,20,10z M34.5,26.4L34.5,26.4c0.7,0.4,0.7,1.1,0,1.5
					l-6.1,3.9c-0.7,0.4-1.2,0.1-1.2-0.7v-2.5H12.7c-3.4,0-6.6-1.3-9-3.6C1.3,22.7,0,19.6,0,16.3c0-2.4,0.7-4.7,2-6.7
					C2.5,9,3.3,8.8,4,9.2c0.7,0.4,0.9,1.3,0.4,1.9c-1,1.5-1.6,3.3-1.6,5.2c0,5.3,4.4,9.6,9.8,9.6h14.4v-2.5c0-0.8,0.6-1.1,1.3-0.7
					L34.5,26.4z"/>
			</g>
		</g>
	</g>
</g>
</svg>
